# xmcd
#
# Track frame offsets: 
#        178
#        14870
#        32938
#        48258
#        66700
#        83905
#        101750
#        119270
#        136728
#        152805
#        169143
#        186733
#        202883
#        219210
#        232475
#        250733
#        267670
#        284533
#        301865
#        318615
#        336113
#
# Disc length: 4669 seconds
#
# Revision: 3
# Processed by: cddbd v1.5.2PL0 Copyright (c) Steve Scherf et al.
# Submitted via: ExactAudioCopy v0.99pb3
#
DISCID=4b123b15
DTITLE=George Harrison - Cloud Nine and Gone Troppo
DYEAR=1987
DGENRE=Rock
TTITLE0=Cloud Nine
TTITLE1=That's What It Takes
TTITLE2=Fish On The Sand
TTITLE3=Just for Today
TTITLE4=This Is Love
TTITLE5=When We Was Fab
TTITLE6=The Devil's Radio
TTITLE7=Someplace Else
TTITLE8=Wreck Of The Hesperus
TTITLE9=Breath Away From Heaven
TTITLE10=Got My Mind Set On You
TTITLE11=Wake Up My Love
TTITLE12=That's The Way It Goes
TTITLE13=I Really Love You
TTITLE14=Greece (Instrumental)
TTITLE15=Gone Troppo
TTITLE16=Mystical One
TTITLE17=Unknown Delight
TTITLE18=Baby Don't Run Away
TTITLE19=Dream Away
TTITLE20=Circles
EXTD=
EXTT0=
EXTT1=
EXTT2=
EXTT3=
EXTT4=
EXTT5=
EXTT6=
EXTT7=
EXTT8=
EXTT9=
EXTT10=
EXTT11=
EXTT12=
EXTT13=
EXTT14=
EXTT15=
EXTT16=
EXTT17=
EXTT18=
EXTT19=
EXTT20=
PLAYORDER=
